<svg width="44" height="44" viewBox="0 0 44 44" fill="none" xmlns="http://www.w3.org/2000/svg">
<path d="M7.33268 36.6663C6.32435 36.6663 5.46115 36.3073 4.7431 35.5893C4.02504 34.8712 3.66602 34.008 3.66602 32.9997V10.9997C3.66602 9.99134 4.02504 9.12815 4.7431 8.41009C5.46115 7.69204 6.32435 7.33301 7.33268 7.33301H36.666C37.6743 7.33301 38.5375 7.69204 39.2556 8.41009C39.9737 9.12815 40.3327 9.99134 40.3327 10.9997V32.9997C40.3327 34.008 39.9737 34.8712 39.2556 35.5893C38.5375 36.3073 37.6743 36.6663 36.666 36.6663H7.33268ZM21.9993 23.833L36.666 14.6663V10.9997L21.9993 20.1663L7.33268 10.9997V14.6663L21.9993 23.833Z" fill="#0C5BA5"/>
</svg>
