<svg width="50" height="50" viewBox="0 0 50 50" fill="none" xmlns="http://www.w3.org/2000/svg">
<path d="M37.1877 41.5628L27.969 32.3441L32.344 27.9691L41.5627 37.1878C42.153 37.7781 42.4481 38.5073 42.4481 39.3753C42.4481 40.2434 42.153 40.9726 41.5627 41.5628C40.9724 42.1531 40.2433 42.4482 39.3752 42.4482C38.5072 42.4482 37.778 42.1531 37.1877 41.5628ZM7.5523 39.3753C7.5523 38.5073 7.84744 37.7781 8.43772 37.1878L20.6252 25.0003L17.0835 21.4587C16.7016 21.8406 16.2155 22.0316 15.6252 22.0316C15.0349 22.0316 14.5488 21.8406 14.1669 21.4587L12.969 20.2607V24.9482C12.969 25.4344 12.7606 25.7642 12.344 25.9378C11.9273 26.1114 11.5454 26.0246 11.1981 25.6774L5.52105 20.0003C5.17383 19.6531 5.08702 19.2712 5.26063 18.8545C5.43424 18.4378 5.76411 18.2295 6.25022 18.2295H10.9377L9.79188 17.0837C9.37522 16.667 9.16688 16.1809 9.16688 15.6253C9.16688 15.0698 9.37522 14.5837 9.79188 14.167L15.7294 8.22949C16.4238 7.53505 17.1704 7.03158 17.969 6.71908C18.7676 6.40658 19.5835 6.25033 20.4169 6.25033C21.1113 6.25033 21.7627 6.35449 22.371 6.56283C22.9794 6.77116 23.578 7.08366 24.1669 7.50033C24.4447 7.67394 24.5926 7.91699 24.6106 8.22949C24.6287 8.54199 24.5155 8.81977 24.271 9.06283L20.3127 13.0212L21.4585 14.167C21.8405 14.5489 22.0315 15.035 22.0315 15.6253C22.0315 16.2156 21.8405 16.7017 21.4585 17.0837L25.0002 20.6253L29.6877 15.9378C29.5488 15.5559 29.4363 15.1566 29.3502 14.7399C29.2641 14.3232 29.2204 13.9066 29.219 13.4899C29.219 11.4413 29.9224 9.71352 31.3294 8.30658C32.7363 6.89963 34.4634 6.19686 36.5106 6.19824C36.7884 6.19824 37.0488 6.20727 37.2919 6.22533C37.5349 6.24338 37.778 6.28644 38.021 6.35449C38.3335 6.45866 38.5335 6.67602 38.621 7.00658C38.7085 7.33713 38.6301 7.62324 38.3856 7.86491L35.0002 11.2503C34.7919 11.4587 34.6877 11.7017 34.6877 11.9795C34.6877 12.2573 34.7919 12.5003 35.0002 12.7087L37.2919 15.0003C37.5002 15.2087 37.7433 15.3128 38.021 15.3128C38.2988 15.3128 38.5419 15.2087 38.7502 15.0003L42.1356 11.6149C42.3787 11.3719 42.6655 11.285 42.996 11.3545C43.3266 11.4239 43.5433 11.6323 43.646 11.9795C43.7155 12.2225 43.7592 12.4656 43.7773 12.7087C43.7954 12.9517 43.8037 13.2121 43.8023 13.4899C43.8023 15.5385 43.0995 17.2656 41.694 18.6712C40.2884 20.0767 38.5606 20.7802 36.5106 20.7816C36.094 20.7816 35.6773 20.7469 35.2606 20.6774C34.844 20.608 34.4447 20.4864 34.0627 20.3128L12.8127 41.5628C12.2224 42.1531 11.4933 42.4482 10.6252 42.4482C9.75716 42.4482 9.02799 42.1531 8.43772 41.5628C7.84744 40.9726 7.5523 40.2434 7.5523 39.3753Z" fill="#0C5BA5"/>
</svg>
