<svg width="44" height="44" viewBox="0 0 44 44" fill="none" xmlns="http://www.w3.org/2000/svg">
<g clip-path="url(#clip0_117_2610)">
<path d="M34.375 44C36.9277 44 39.3759 42.9859 41.1809 41.1809C42.9859 39.3759 44 36.9277 44 34.375C44 31.8223 42.9859 29.3741 41.1809 27.5691C39.3759 25.7641 36.9277 24.75 34.375 24.75C31.8223 24.75 29.3741 25.7641 27.5691 27.5691C25.7641 29.3741 24.75 31.8223 24.75 34.375C24.75 36.9277 25.7641 39.3759 27.5691 41.1809C29.3741 42.9859 31.8223 44 34.375 44ZM35.75 30.25V33H38.5C38.8647 33 39.2144 33.1449 39.4723 33.4027C39.7301 33.6606 39.875 34.0103 39.875 34.375C39.875 34.7397 39.7301 35.0894 39.4723 35.3473C39.2144 35.6051 38.8647 35.75 38.5 35.75H35.75V38.5C35.75 38.8647 35.6051 39.2144 35.3473 39.4723C35.0894 39.7301 34.7397 39.875 34.375 39.875C34.0103 39.875 33.6606 39.7301 33.4027 39.4723C33.1449 39.2144 33 38.8647 33 38.5V35.75H30.25C29.8853 35.75 29.5356 35.6051 29.2777 35.3473C29.0199 35.0894 28.875 34.7397 28.875 34.375C28.875 34.0103 29.0199 33.6606 29.2777 33.4027C29.5356 33.1449 29.8853 33 30.25 33H33V30.25C33 29.8853 33.1449 29.5356 33.4027 29.2777C33.6606 29.0199 34.0103 28.875 34.375 28.875C34.7397 28.875 35.0894 29.0199 35.3473 29.2777C35.6051 29.5356 35.75 29.8853 35.75 30.25Z" fill="#0C5BA5"/>
<path d="M23.944 4.12548C23.4283 3.60993 22.729 3.32031 21.9998 3.32031C21.2706 3.32031 20.5712 3.60993 20.0555 4.12548L1.77628 22.402C1.64844 22.5298 1.54703 22.6816 1.47784 22.8486C1.40866 23.0157 1.37305 23.1947 1.37305 23.3755C1.37305 23.5563 1.40866 23.7353 1.47784 23.9023C1.54703 24.0694 1.64844 24.2211 1.77628 24.349C2.03447 24.6072 2.38465 24.7522 2.74978 24.7522C2.93058 24.7522 3.1096 24.7166 3.27664 24.6474C3.44367 24.5782 3.59544 24.4768 3.72328 24.349L21.9998 6.06973L40.2763 24.349C40.5345 24.6072 40.8846 24.7522 41.2498 24.7522C41.6149 24.7522 41.9651 24.6072 42.2233 24.349C42.4815 24.0908 42.6265 23.7406 42.6265 23.3755C42.6265 23.0103 42.4815 22.6602 42.2233 22.402L35.7498 15.9312V6.87548C35.7498 6.5108 35.6049 6.16107 35.3471 5.9032C35.0892 5.64534 34.7395 5.50048 34.3748 5.50048H31.6248C31.2601 5.50048 30.9104 5.64534 30.6525 5.9032C30.3946 6.16107 30.2498 6.5108 30.2498 6.87548V10.4312L23.944 4.12548Z" fill="#0C5BA5"/>
<path d="M22 9.05664L34.958 22.0146C32.67 21.9066 30.3969 22.4356 28.3918 23.5429C26.3866 24.6502 24.7282 26.2923 23.601 28.2863C22.4739 30.2803 21.9223 32.5481 22.0076 34.837C22.093 37.126 22.812 39.3463 24.0845 41.2509H9.625C8.53098 41.2509 7.48177 40.8163 6.70818 40.0427C5.9346 39.2691 5.5 38.2199 5.5 37.1259V25.5566L22 9.05664Z" fill="#0C5BA5"/>
</g>
<defs>
<clipPath id="clip0_117_2610">
<rect width="44" height="44" fill="white"/>
</clipPath>
</defs>
</svg>
