<svg width="706" height="468" viewBox="0 0 706 468" fill="none" xmlns="http://www.w3.org/2000/svg">
<rect x="75.5587" y="68.1116" width="554.883" height="349.919" rx="56.8911" fill="#FFCC00" stroke="#030052" stroke-width="3.11732"/>
<path d="M190.51 75.5154C200.84 75.5155 209.214 83.8896 209.214 94.2195C209.214 104.549 200.84 112.924 190.51 112.924C180.18 112.924 171.806 104.549 171.806 94.2195C171.806 83.8896 180.18 75.5154 190.51 75.5154Z" fill="white" stroke="black" stroke-width="2.33799"/>
<circle cx="238.828" cy="112.144" r="11.6899" fill="white" stroke="black" stroke-width="2.33799"/>
<circle cx="298.448" cy="116.43" r="13.6383" fill="white" stroke="black" stroke-width="2.33799"/>
<circle cx="339.753" cy="83.3087" r="18.3142" fill="white" stroke="black" stroke-width="2.33799"/>
<circle cx="394.693" cy="59.9287" r="22.6006" fill="white" stroke="black" stroke-width="2.33799"/>
<circle cx="470.679" cy="43.9525" r="30.7835" fill="white" stroke="black" stroke-width="2.33799"/>
<circle cx="269.222" cy="143.317" r="9.35196" fill="white" stroke="black" stroke-width="2.33799"/>
<g filter="url(#filter0_d_144_3663)">
<path d="M158.65 171.743H129.813C126.653 183.752 124.019 274.975 123.098 319.086H153.119V254.302C155.331 254.619 167.998 269.445 174.055 276.819L203.287 319.086L225.803 297.755L185.511 241.267L230.543 189.124L210.397 170.163L155.094 225.466L158.65 171.743Z" fill="#000066"/>
<path d="M351.815 319.086L358.925 170.163H378.281C389.026 170.163 394.345 179.38 395.662 183.989L415.018 251.932L450.965 169.768C473.718 166.924 478.88 183.594 478.617 192.284V319.086H445.83L449.78 247.982L423.314 299.335C413.833 313.24 406.723 305.129 404.353 299.335L386.182 246.007L384.207 319.086H351.815Z" fill="#000066"/>
<path d="M582.902 216.776H554.856H553.671V197.42C547.034 188.571 538.791 193.206 535.5 196.629C526.651 208.322 531.023 219.146 534.315 223.096C535.579 229.1 555.909 241.662 565.916 247.192C582.981 259.833 582.244 279.847 579.742 288.274C574.37 310.712 554.592 317.638 545.375 318.296C527.678 320.824 513.51 316.716 508.638 314.346L488.492 304.47L499.553 286.299C505.083 289.196 518.672 295.062 520.884 295.062C537.949 300.751 543.663 294.99 545.375 291.435C548.93 285.509 551.695 271.367 534.315 262.203C516.934 253.038 507.321 244.954 504.688 242.057C491.415 224.36 500.738 198.019 506.268 188.802C519.225 172.053 541.952 171.875 552.486 172.138C575.871 172.138 582.507 189.519 582.902 198.21V216.776Z" fill="#000066"/>
<path d="M158.65 171.743H129.813C126.653 183.752 124.019 274.975 123.098 319.086H153.119V254.302C155.331 254.619 167.998 269.445 174.055 276.819L203.287 319.086L225.803 297.755L185.511 241.267L230.543 189.124L210.397 170.163L155.094 225.466L158.65 171.743Z" stroke="black" stroke-width="0.790042"/>
<path d="M351.815 319.086L358.925 170.163H378.281C389.026 170.163 394.345 179.38 395.662 183.989L415.018 251.932L450.965 169.768C473.718 166.924 478.88 183.594 478.617 192.284V319.086H445.83L449.78 247.982L423.314 299.335C413.833 313.24 406.723 305.129 404.353 299.335L386.182 246.007L384.207 319.086H351.815Z" stroke="black" stroke-width="0.790042"/>
<path d="M582.902 216.776H554.856H553.671V197.42C547.034 188.571 538.791 193.206 535.5 196.629C526.651 208.322 531.023 219.146 534.315 223.096C535.579 229.1 555.909 241.662 565.916 247.192C582.981 259.833 582.244 279.847 579.742 288.274C574.37 310.712 554.592 317.638 545.375 318.296C527.678 320.824 513.51 316.716 508.638 314.346L488.492 304.47L499.553 286.299C505.083 289.196 518.672 295.062 520.884 295.062C537.949 300.751 543.663 294.99 545.375 291.435C548.93 285.509 551.695 271.367 534.315 262.203C516.934 253.038 507.321 244.954 504.688 242.057C491.415 224.36 500.738 198.019 506.268 188.802C519.225 172.053 541.952 171.875 552.486 172.138C575.871 172.138 582.507 189.519 582.902 198.21V216.776Z" stroke="black" stroke-width="0.790042"/>
</g>
<g filter="url(#filter1_d_144_3663)">
<path d="M236.882 237.401C241.819 195.869 268.041 164.843 295.45 168.101C322.859 171.359 341.076 207.668 336.139 249.2C331.202 290.731 304.98 321.759 277.571 318.5C250.162 315.242 231.945 278.933 236.882 237.401ZM292.725 193.773C281.852 192.48 270.37 213.865 267.081 241.537C263.791 269.208 269.94 292.688 280.813 293.981C291.686 295.273 303.167 273.889 306.457 246.217C309.746 218.546 303.598 195.066 292.725 193.773Z" fill="#000066"/>
</g>
<g clip-path="url(#clip0_144_3663)">
<path d="M265.167 379.342L257.92 363.069L260.614 362.666L265.888 375.319L266.045 375.295L267.519 361.634L270.189 361.234L275.596 373.876L275.753 373.852L277.086 360.203L279.788 359.799L277.61 377.482L275.032 377.867L269.557 365.685L269.425 365.705L267.753 378.956L265.167 379.342ZM286.744 376.546C285.934 376.645 285.183 376.585 284.492 376.366C283.8 376.141 283.228 375.764 282.774 375.234C282.326 374.703 282.051 374.019 281.948 373.182C281.86 372.461 281.926 371.851 282.146 371.351C282.366 370.851 282.695 370.436 283.133 370.106C283.571 369.777 284.073 369.507 284.638 369.297C285.204 369.087 285.784 368.909 286.38 368.762C287.135 368.58 287.747 368.431 288.217 368.317C288.686 368.198 289.021 368.058 289.221 367.899C289.421 367.739 289.503 367.509 289.466 367.21L289.459 367.152C289.37 366.425 289.096 365.887 288.636 365.538C288.182 365.189 287.553 365.063 286.749 365.162C285.912 365.264 285.274 365.531 284.837 365.962C284.405 366.387 284.125 366.835 283.997 367.306L281.594 367.061C281.776 366.25 282.104 365.574 282.578 365.032C283.057 364.483 283.633 364.058 284.305 363.756C284.977 363.448 285.698 363.247 286.469 363.153C286.979 363.09 287.527 363.085 288.114 363.137C288.705 363.182 289.269 363.333 289.807 363.588C290.351 363.842 290.819 364.243 291.213 364.792C291.606 365.335 291.86 366.072 291.974 367.004L293.015 375.49L290.586 375.787L290.371 374.04L290.272 374.053C290.15 374.394 289.948 374.74 289.664 375.09C289.381 375.44 288.999 375.748 288.519 376.016C288.04 376.283 287.448 376.459 286.744 376.546ZM287.039 374.483C287.727 374.398 288.298 374.191 288.753 373.859C289.213 373.527 289.544 373.126 289.746 372.656C289.952 372.181 290.024 371.69 289.962 371.186L289.76 369.538C289.682 369.638 289.521 369.742 289.275 369.851C289.034 369.954 288.756 370.053 288.441 370.148C288.126 370.237 287.818 370.323 287.519 370.404C287.219 370.481 286.967 370.545 286.766 370.598C286.291 370.718 285.862 370.875 285.481 371.068C285.104 371.261 284.814 371.507 284.609 371.809C284.408 372.103 284.335 372.473 284.39 372.916C284.465 373.532 284.75 373.97 285.243 374.23C285.736 374.485 286.335 374.569 287.039 374.483ZM300.8 361.676L301.016 363.676L294.024 364.431L293.808 362.431L300.8 361.676ZM295.352 359.162L297.844 358.893L299.151 371.001C299.204 371.485 299.315 371.841 299.486 372.07C299.656 372.293 299.86 372.437 300.097 372.501C300.34 372.559 300.597 372.574 300.869 372.544C301.069 372.523 301.243 372.49 301.39 372.446C301.537 372.402 301.651 372.367 301.733 372.341L302.405 374.351C302.266 374.422 302.067 374.5 301.806 374.584C301.546 374.674 301.216 374.744 300.817 374.792C300.163 374.874 299.539 374.824 298.946 374.64C298.353 374.457 297.854 374.129 297.448 373.656C297.043 373.182 296.799 372.559 296.716 371.787L295.352 359.162ZM310.238 373.964C308.975 374.084 307.862 373.917 306.899 373.463C305.94 373.004 305.167 372.305 304.579 371.367C303.996 370.423 303.642 369.286 303.516 367.957C303.392 366.644 303.527 365.463 303.922 364.416C304.323 363.368 304.939 362.521 305.77 361.875C306.607 361.229 307.621 360.85 308.811 360.738C309.535 360.669 310.247 360.723 310.948 360.898C311.65 361.073 312.294 361.391 312.882 361.852C313.47 362.313 313.959 362.937 314.347 363.726C314.736 364.508 314.985 365.481 315.095 366.644L315.178 367.528L304.989 368.491L304.813 366.622L312.557 365.89C312.494 365.234 312.306 364.665 311.991 364.184C311.676 363.697 311.262 363.329 310.75 363.08C310.244 362.831 309.668 362.736 309.023 362.797C308.322 362.864 307.726 363.094 307.236 363.488C306.751 363.876 306.392 364.359 306.16 364.937C305.934 365.508 305.851 366.114 305.911 366.754L306.049 368.214C306.13 369.071 306.349 369.785 306.706 370.358C307.069 370.93 307.538 371.348 308.113 371.614C308.688 371.874 309.34 371.97 310.068 371.901C310.541 371.856 310.966 371.749 311.343 371.578C311.719 371.402 312.036 371.165 312.294 370.865C312.552 370.566 312.737 370.209 312.85 369.794L315.251 369.997C315.128 370.71 314.846 371.351 314.406 371.92C313.971 372.483 313.4 372.944 312.693 373.303C311.991 373.655 311.173 373.876 310.238 373.964ZM318.362 372.959L317.332 360.125L319.747 359.932L319.91 361.97L320.044 361.96C320.222 361.25 320.591 360.674 321.15 360.231C321.714 359.782 322.371 359.528 323.123 359.467C323.279 359.455 323.464 359.446 323.676 359.44C323.894 359.433 324.065 359.434 324.189 359.441L324.381 361.83C324.278 361.81 324.098 361.794 323.839 361.781C323.579 361.763 323.322 361.764 323.065 361.784C322.475 361.832 321.959 361.999 321.517 362.287C321.079 362.569 320.745 362.94 320.513 363.402C320.28 363.858 320.186 364.364 320.231 364.921L320.86 372.758L318.362 372.959ZM327.6 377.082L326.421 359.419L328.863 359.256L329.002 361.339L329.211 361.325C329.338 361.047 329.526 360.724 329.776 360.354C330.026 359.985 330.384 359.653 330.852 359.358C331.319 359.058 331.951 358.882 332.749 358.829C333.786 358.759 334.729 358.96 335.578 359.429C336.427 359.899 337.115 360.612 337.645 361.568C338.179 362.524 338.492 363.696 338.585 365.084C338.678 366.472 338.526 367.678 338.129 368.701C337.732 369.719 337.148 370.523 336.375 371.112C335.602 371.695 334.696 372.022 333.659 372.091C332.879 372.143 332.232 372.055 331.718 371.826C331.21 371.597 330.805 371.316 330.502 370.983C330.2 370.65 329.965 370.352 329.796 370.089L329.645 370.099L330.101 376.915L327.6 377.082ZM329.3 365.678C329.36 366.582 329.544 367.365 329.852 368.027C330.159 368.69 330.574 369.197 331.096 369.549C331.617 369.895 332.238 370.044 332.957 369.996C333.704 369.946 334.315 369.706 334.79 369.277C335.265 368.842 335.608 368.273 335.819 367.57C336.035 366.867 336.115 366.086 336.057 365.227C336.001 364.38 335.822 363.627 335.52 362.97C335.224 362.312 334.81 361.805 334.276 361.448C333.748 361.092 333.108 360.938 332.355 360.989C331.631 361.037 331.03 361.265 330.553 361.672C330.082 362.078 329.74 362.625 329.528 363.311C329.316 363.997 329.24 364.786 329.3 365.678ZM341.711 371.321L341.009 358.466L343.427 358.334L343.539 360.376L343.673 360.368C343.869 359.664 344.253 359.097 344.822 358.669C345.398 358.234 346.062 357.996 346.815 357.955C346.971 357.947 347.155 357.942 347.368 357.942C347.586 357.941 347.757 357.946 347.881 357.956L348.011 360.349C347.91 360.327 347.729 360.306 347.471 360.287C347.213 360.262 346.954 360.256 346.698 360.27C346.107 360.302 345.586 360.457 345.137 360.733C344.692 361.004 344.349 361.367 344.105 361.822C343.861 362.272 343.754 362.776 343.785 363.334L344.214 371.184L341.711 371.321ZM355.63 370.899C354.425 370.952 353.361 370.721 352.437 370.207C351.515 369.694 350.783 368.951 350.243 367.979C349.703 367.007 349.404 365.856 349.347 364.528C349.288 363.194 349.486 362.016 349.939 360.995C350.393 359.974 351.057 359.168 351.932 358.576C352.807 357.984 353.847 357.662 355.053 357.61C356.259 357.557 357.323 357.788 358.246 358.302C359.168 358.815 359.9 359.561 360.441 360.538C360.981 361.516 361.28 362.672 361.338 364.006C361.395 365.335 361.198 366.507 360.744 367.522C360.29 368.538 359.626 369.341 358.752 369.933C357.877 370.525 356.836 370.847 355.63 370.899ZM355.548 368.797C356.329 368.763 356.968 368.528 357.463 368.093C357.959 367.657 358.315 367.091 358.53 366.394C358.752 365.696 358.844 364.934 358.809 364.108C358.773 363.287 358.614 362.539 358.333 361.863C358.057 361.182 357.654 360.643 357.122 360.247C356.591 359.85 355.934 359.669 355.152 359.703C354.365 359.737 353.721 359.975 353.22 360.416C352.725 360.857 352.366 361.429 352.145 362.133C351.929 362.83 351.839 363.589 351.875 364.409C351.911 365.236 352.067 365.987 352.342 366.663C352.623 367.339 353.03 367.872 353.561 368.263C354.098 368.653 354.761 368.831 355.548 368.797ZM369.711 370.391C368.505 370.426 367.444 370.18 366.529 369.652C365.614 369.125 364.894 368.372 364.369 367.392C363.842 366.412 363.561 365.257 363.522 363.928C363.485 362.593 363.7 361.418 364.168 360.404C364.636 359.39 365.312 358.594 366.196 358.015C367.079 357.436 368.125 357.129 369.331 357.095C370.538 357.06 371.598 357.307 372.514 357.834C373.428 358.361 374.149 359.118 374.675 360.103C375.2 361.089 375.482 362.249 375.521 363.584C375.558 364.913 375.343 366.082 374.875 367.091C374.406 368.099 373.73 368.893 372.847 369.472C371.963 370.05 370.918 370.357 369.711 370.391ZM369.66 368.288C370.442 368.266 371.084 368.041 371.586 367.613C372.088 367.185 372.452 366.623 372.678 365.929C372.91 365.235 373.014 364.475 372.99 363.648C372.967 362.827 372.819 362.076 372.548 361.397C372.283 360.711 371.887 360.166 371.361 359.762C370.836 359.358 370.181 359.167 369.399 359.189C368.612 359.212 367.964 359.44 367.457 359.874C366.955 360.307 366.588 360.874 366.357 361.574C366.131 362.268 366.029 363.026 366.053 363.847C366.076 364.673 366.221 365.427 366.486 366.107C366.757 366.787 367.156 367.326 367.681 367.724C368.213 368.123 368.872 368.311 369.66 368.288ZM384.303 356.918L384.339 358.929L377.065 359.06L377.029 357.048L384.303 356.918ZM379.254 369.885L378.997 355.521C378.982 354.716 379.147 354.045 379.489 353.508C379.831 352.966 380.291 352.558 380.867 352.285C381.443 352.006 382.072 351.861 382.754 351.849C383.257 351.84 383.688 351.874 384.047 351.951C384.405 352.023 384.673 352.091 384.847 352.155L384.297 354.194C384.179 354.162 384.027 354.126 383.841 354.084C383.656 354.037 383.433 354.016 383.17 354.021C382.561 354.032 382.128 354.191 381.871 354.497C381.619 354.803 381.498 355.241 381.509 355.811L381.759 369.84L379.254 369.885ZM387.071 369.754L386.913 356.881L389.419 356.85L389.577 369.724L387.071 369.754ZM388.155 354.879C387.718 354.884 387.342 354.744 387.026 354.457C386.715 354.165 386.557 353.815 386.552 353.407C386.547 352.993 386.696 352.639 387 352.345C387.309 352.045 387.682 351.892 388.118 351.887C388.553 351.882 388.927 352.025 389.238 352.318C389.555 352.604 389.715 352.954 389.72 353.368C389.725 353.776 389.573 354.13 389.264 354.43C388.96 354.724 388.59 354.874 388.155 354.879ZM395.35 362.056L395.356 369.7L392.85 369.702L392.84 356.828L395.246 356.826L395.247 358.921L395.406 358.921C395.702 358.239 396.165 357.691 396.796 357.277C397.433 356.863 398.235 356.656 399.201 356.655C400.079 356.654 400.847 356.838 401.507 357.207C402.166 357.569 402.678 358.111 403.042 358.831C403.406 359.552 403.588 360.443 403.589 361.505L403.595 369.694L401.089 369.696L401.083 361.808C401.082 360.875 400.839 360.146 400.352 359.621C399.865 359.091 399.197 358.826 398.348 358.827C397.767 358.827 397.251 358.953 396.798 359.205C396.351 359.457 395.996 359.826 395.734 360.312C395.477 360.793 395.35 361.374 395.35 362.056ZM412.187 374.87C411.165 374.858 410.286 374.714 409.552 374.437C408.823 374.16 408.229 373.799 407.771 373.352C407.312 372.905 406.971 372.418 406.748 371.89L408.913 371.026C409.06 371.274 409.259 371.536 409.507 371.813C409.761 372.095 410.104 372.337 410.538 372.537C410.977 372.738 411.544 372.843 412.236 372.851C413.186 372.862 413.974 372.639 414.599 372.182C415.225 371.732 415.543 371.003 415.555 369.997L415.585 367.466L415.426 367.464C415.271 367.736 415.05 368.038 414.761 368.37C414.478 368.702 414.089 368.988 413.594 369.229C413.1 369.469 412.458 369.584 411.67 369.575C410.654 369.563 409.74 369.315 408.93 368.83C408.125 368.341 407.491 367.626 407.027 366.688C406.569 365.743 406.347 364.587 406.363 363.218C406.38 361.849 406.625 360.678 407.1 359.706C407.581 358.734 408.232 357.992 409.054 357.482C409.876 356.966 410.804 356.715 411.837 356.727C412.636 356.736 413.28 356.878 413.768 357.151C414.258 357.42 414.637 357.732 414.906 358.087C415.182 358.442 415.393 358.755 415.541 359.025L415.725 359.027L415.75 356.94L418.205 356.969L418.052 370.127C418.039 371.233 417.771 372.138 417.249 372.842C416.727 373.546 416.025 374.063 415.144 374.393C414.268 374.724 413.282 374.883 412.187 374.87ZM412.248 367.503C412.969 367.511 413.58 367.351 414.081 367.021C414.588 366.686 414.974 366.205 415.238 365.576C415.508 364.942 415.648 364.181 415.658 363.293C415.669 362.427 415.549 361.662 415.3 361C415.05 360.338 414.679 359.819 414.186 359.445C413.694 359.065 413.081 358.87 412.349 358.862C411.595 358.853 410.964 359.041 410.456 359.426C409.949 359.806 409.563 360.327 409.298 360.989C409.039 361.651 408.904 362.392 408.895 363.214C408.885 364.058 409.005 364.799 409.254 365.439C409.504 366.079 409.878 366.581 410.377 366.945C410.881 367.308 411.505 367.494 412.248 367.503ZM437.451 357.703C437.387 356.907 437.039 356.28 436.405 355.824C435.772 355.361 434.963 355.114 433.981 355.082C433.277 355.06 432.665 355.151 432.144 355.358C431.622 355.559 431.213 355.848 430.916 356.224C430.625 356.595 430.471 357.023 430.455 357.509C430.442 357.916 430.526 358.271 430.705 358.574C430.891 358.876 431.138 359.133 431.443 359.344C431.755 359.55 432.091 359.726 432.449 359.871C432.809 360.012 433.154 360.129 433.486 360.224L435.148 360.714C435.69 360.866 436.246 361.066 436.814 361.313C437.382 361.561 437.905 361.88 438.385 362.27C438.864 362.66 439.245 363.137 439.529 363.699C439.819 364.262 439.95 364.929 439.925 365.7C439.893 366.672 439.615 367.526 439.087 368.264C438.565 369.002 437.823 369.573 436.86 369.978C435.902 370.383 434.752 370.563 433.411 370.52C432.127 370.478 431.023 370.238 430.097 369.8C429.172 369.362 428.457 368.76 427.95 367.994C427.445 367.223 427.181 366.32 427.158 365.285L429.755 365.369C429.785 365.991 429.969 366.514 430.307 366.939C430.652 367.358 431.098 367.677 431.644 367.896C432.196 368.11 432.804 368.227 433.469 368.249C434.201 368.273 434.855 368.179 435.432 367.969C436.015 367.753 436.478 367.444 436.821 367.041C437.164 366.633 437.344 366.15 437.362 365.591C437.379 365.083 437.247 364.662 436.968 364.329C436.693 363.996 436.314 363.715 435.829 363.487C435.35 363.259 434.806 363.054 434.197 362.872L432.188 362.253C430.826 361.834 429.755 361.249 428.974 360.496C428.199 359.744 427.831 358.771 427.87 357.576C427.902 356.587 428.198 355.733 428.759 355.013C429.319 354.293 430.063 353.745 430.992 353.367C431.922 352.983 432.962 352.81 434.112 352.848C435.274 352.885 436.292 353.122 437.167 353.559C438.047 353.996 438.732 354.58 439.223 355.312C439.714 356.038 439.956 356.862 439.948 357.784L437.451 357.703ZM442.316 375.377L443.141 357.694L445.586 357.808L445.488 359.893L445.698 359.902C445.855 359.641 446.079 359.341 446.369 359.002C446.659 358.663 447.053 358.374 447.551 358.134C448.049 357.889 448.697 357.785 449.495 357.822C450.533 357.871 451.448 358.176 452.238 358.739C453.028 359.302 453.633 360.088 454.049 361.097C454.472 362.107 454.651 363.307 454.587 364.697C454.522 366.087 454.235 367.268 453.725 368.24C453.216 369.206 452.544 369.938 451.71 370.437C450.875 370.929 449.939 371.151 448.901 371.103C448.12 371.066 447.486 370.905 447.002 370.62C446.523 370.335 446.152 370.01 445.889 369.645C445.627 369.28 445.426 368.958 445.288 368.677L445.138 368.67L444.82 375.494L442.316 375.377ZM445.294 364.239C445.252 365.143 445.347 365.942 445.577 366.635C445.807 367.328 446.162 367.879 446.641 368.287C447.12 368.69 447.719 368.908 448.439 368.942C449.188 368.976 449.822 368.807 450.343 368.435C450.864 368.056 451.268 367.53 451.558 366.855C451.852 366.181 452.019 365.414 452.059 364.554C452.099 363.706 452.006 362.938 451.781 362.25C451.561 361.563 451.206 361.012 450.717 360.598C450.232 360.184 449.614 359.959 448.86 359.924C448.135 359.89 447.511 360.049 446.992 360.399C446.478 360.75 446.077 361.254 445.789 361.912C445.501 362.57 445.336 363.345 445.294 364.239ZM462.492 371.847C461.226 371.77 460.152 371.433 459.271 370.836C458.395 370.234 457.739 369.425 457.302 368.407C456.872 367.384 456.697 366.207 456.778 364.874C456.859 363.557 457.175 362.412 457.727 361.438C458.285 360.464 459.024 359.723 459.944 359.213C460.872 358.704 461.931 358.486 463.125 358.559C463.85 358.603 464.546 358.766 465.212 359.047C465.877 359.328 466.465 359.742 466.975 360.288C467.485 360.834 467.871 361.527 468.134 362.366C468.396 363.199 468.492 364.199 468.421 365.364L468.367 366.251L458.151 365.629L458.266 363.755L466.029 364.228C466.07 363.57 465.971 362.979 465.735 362.455C465.498 361.925 465.146 361.498 464.679 361.173C464.218 360.848 463.663 360.666 463.016 360.626C462.313 360.584 461.689 360.719 461.144 361.033C460.605 361.342 460.176 361.764 459.858 362.298C459.546 362.828 459.37 363.413 459.331 364.055L459.242 365.519C459.189 366.378 459.295 367.118 459.56 367.738C459.83 368.36 460.229 368.846 460.756 369.197C461.284 369.543 461.912 369.738 462.643 369.782C463.118 369.811 463.553 369.77 463.952 369.66C464.351 369.545 464.701 369.359 465.002 369.103C465.303 368.847 465.542 368.523 465.717 368.13L468.058 368.701C467.826 369.387 467.449 369.977 466.926 370.471C466.409 370.96 465.773 371.328 465.02 371.573C464.272 371.813 463.43 371.904 462.492 371.847ZM476.041 372.788C474.798 372.692 473.751 372.328 472.898 371.696C472.05 371.058 471.425 370.223 471.023 369.188C470.622 368.154 470.47 366.993 470.57 365.706C470.671 364.403 471.005 363.271 471.572 362.312C472.14 361.347 472.892 360.618 473.827 360.124C474.762 359.63 475.834 359.43 477.043 359.524C478.017 359.599 478.873 359.848 479.608 360.269C480.344 360.685 480.92 361.234 481.339 361.916C481.762 362.599 481.985 363.376 482.007 364.246L479.575 364.058C479.488 363.446 479.222 362.904 478.776 362.432C478.336 361.961 477.718 361.695 476.922 361.633C476.225 361.579 475.6 361.716 475.049 362.043C474.502 362.365 474.059 362.852 473.717 363.503C473.375 364.15 473.169 364.929 473.098 365.843C473.026 366.779 473.105 367.598 473.337 368.3C473.568 369.001 473.929 369.559 474.418 369.972C474.913 370.386 475.514 370.62 476.221 370.675C476.695 370.712 477.13 370.659 477.528 370.516C477.932 370.368 478.277 370.139 478.565 369.831C478.858 369.523 479.075 369.142 479.216 368.688L481.648 368.876C481.496 369.699 481.168 370.419 480.666 371.036C480.164 371.653 479.52 372.119 478.734 372.433C477.952 372.748 477.055 372.867 476.041 372.788ZM483.915 373.154L485.044 360.33L487.54 360.549L486.411 373.374L483.915 373.154ZM486.478 358.462C486.044 358.423 485.684 358.246 485.398 357.929C485.118 357.607 484.995 357.243 485.031 356.837C485.067 356.425 485.251 356.087 485.583 355.825C485.921 355.557 486.307 355.443 486.741 355.481C487.175 355.519 487.532 355.699 487.812 356.021C488.098 356.338 488.223 356.702 488.187 357.114C488.152 357.521 487.965 357.858 487.627 358.125C487.295 358.388 486.912 358.5 486.478 358.462ZM493.377 374.331C492.565 374.251 491.846 374.028 491.219 373.663C490.594 373.292 490.117 372.799 489.791 372.183C489.47 371.567 489.351 370.839 489.434 370C489.505 369.277 489.703 368.696 490.027 368.256C490.352 367.816 490.763 367.484 491.264 367.258C491.763 367.032 492.311 366.879 492.909 366.797C493.506 366.716 494.112 366.669 494.725 366.657C495.502 366.644 496.131 366.633 496.615 366.625C497.1 366.611 497.456 366.548 497.686 366.436C497.917 366.324 498.046 366.117 498.076 365.817L498.082 365.759C498.154 365.03 498.004 364.446 497.632 364.004C497.266 363.564 496.68 363.304 495.873 363.224C495.033 363.141 494.353 363.262 493.833 363.587C493.318 363.907 492.947 364.283 492.719 364.715L490.428 363.949C490.783 363.198 491.251 362.61 491.832 362.185C492.419 361.754 493.074 361.465 493.796 361.318C494.519 361.164 495.266 361.126 496.039 361.202C496.551 361.253 497.087 361.368 497.648 361.547C498.214 361.721 498.733 361.991 499.201 362.357C499.676 362.724 500.046 363.218 500.31 363.84C500.575 364.455 500.661 365.23 500.569 366.165L499.728 374.673L497.293 374.432L497.465 372.68L497.365 372.67C497.172 372.977 496.899 373.27 496.546 373.549C496.192 373.829 495.752 374.047 495.226 374.202C494.7 374.358 494.083 374.401 493.377 374.331ZM494.117 372.383C494.807 372.451 495.41 372.373 495.926 372.149C496.448 371.926 496.858 371.607 497.158 371.193C497.463 370.774 497.641 370.311 497.69 369.805L497.853 368.154C497.756 368.234 497.575 368.3 497.312 368.353C497.055 368.4 496.762 368.436 496.434 368.46C496.106 368.478 495.788 368.494 495.477 368.508C495.168 368.517 494.909 368.525 494.7 368.532C494.21 368.546 493.758 368.605 493.343 368.71C492.934 368.816 492.596 368.993 492.33 369.242C492.07 369.485 491.919 369.83 491.875 370.275C491.813 370.892 491.995 371.382 492.42 371.744C492.845 372.1 493.411 372.313 494.117 372.383ZM507.355 358.242L505.406 375.297L502.916 375.013L504.865 357.958L507.355 358.242ZM508.715 375.683L510.237 362.899L512.726 363.195L511.204 375.979L508.715 375.683ZM511.728 361.076C511.296 361.024 510.94 360.836 510.665 360.51C510.394 360.18 510.283 359.812 510.331 359.407C510.38 358.997 510.575 358.665 510.914 358.413C511.259 358.156 511.649 358.053 512.082 358.105C512.514 358.156 512.866 358.347 513.136 358.678C513.413 359.003 513.527 359.371 513.478 359.782C513.429 360.187 513.232 360.518 512.887 360.775C512.548 361.027 512.161 361.128 511.728 361.076ZM525.278 368.021L522.972 368.118C522.917 367.818 522.804 367.524 522.634 367.236C522.47 366.949 522.226 366.699 521.906 366.487C521.584 366.275 521.166 366.135 520.651 366.066C519.948 365.972 519.34 366.051 518.826 366.304C518.314 366.551 518.025 366.921 517.959 367.414C517.902 367.84 518.014 368.205 518.295 368.507C518.576 368.81 519.057 369.091 519.738 369.351L521.703 370.088C522.841 370.516 523.659 371.052 524.16 371.694C524.661 372.336 524.851 373.108 524.729 374.011C524.627 374.775 524.315 375.427 523.792 375.966C523.274 376.5 522.601 376.883 521.769 377.116C520.942 377.349 520.014 377.397 518.984 377.259C517.556 377.068 516.43 376.607 515.609 375.877C514.788 375.141 514.352 374.195 514.297 373.038L516.747 372.993C516.813 373.639 517.057 374.154 517.479 374.538C517.902 374.915 518.488 375.154 519.235 375.255C520.05 375.363 520.723 375.282 521.256 375.009C521.789 374.731 522.089 374.345 522.155 373.852C522.208 373.454 522.104 373.099 521.84 372.787C521.584 372.476 521.159 372.211 520.569 371.991L518.472 371.229C517.318 370.798 516.494 370.248 516.004 369.579C515.518 368.911 515.336 368.122 515.458 367.214C515.558 366.461 515.857 365.83 516.353 365.321C516.85 364.813 517.49 364.45 518.275 364.234C519.06 364.012 519.932 363.965 520.89 364.093C522.269 364.278 523.314 364.722 524.027 365.426C524.739 366.125 525.156 366.99 525.278 368.021ZM534.681 366.23L534.382 368.219L527.428 367.178L527.726 365.188L534.681 366.23ZM530.048 362.417L532.526 362.788L530.722 374.833C530.65 375.314 530.668 375.686 530.776 375.951C530.884 376.21 531.044 376.401 531.258 376.523C531.477 376.641 531.723 376.72 531.993 376.761C532.192 376.79 532.369 376.803 532.521 376.797C532.675 376.792 532.794 376.787 532.88 376.783L533.021 378.898C532.869 378.931 532.656 378.956 532.383 378.972C532.108 378.993 531.771 378.976 531.373 378.922C530.719 378.835 530.129 378.628 529.601 378.301C529.074 377.973 528.675 377.529 528.402 376.969C528.13 376.408 528.051 375.744 528.167 374.976L530.048 362.417ZM546.281 371.349L543.974 371.369C543.929 371.067 543.826 370.769 543.666 370.476C543.51 370.184 543.276 369.926 542.962 369.703C542.649 369.481 542.235 369.326 541.722 369.24C541.023 369.123 540.412 369.182 539.891 369.417C539.371 369.647 539.07 370.007 538.987 370.498C538.916 370.922 539.015 371.29 539.286 371.602C539.556 371.914 540.028 372.211 540.7 372.494L542.639 373.295C543.763 373.762 544.563 374.324 545.042 374.982C545.521 375.64 545.685 376.419 545.534 377.317C545.406 378.078 545.072 378.718 544.531 379.239C543.997 379.756 543.31 380.117 542.471 380.321C541.638 380.527 540.708 380.544 539.683 380.372C538.261 380.133 537.152 379.635 536.356 378.878C535.561 378.115 535.155 377.155 535.14 375.997L537.59 376.034C537.634 376.682 537.861 377.204 538.27 377.602C538.68 377.993 539.257 378.252 540.002 378.377C540.811 378.513 541.487 378.453 542.029 378.199C542.571 377.939 542.883 377.563 542.965 377.073C543.032 376.676 542.939 376.318 542.687 375.998C542.441 375.679 542.025 375.399 541.442 375.16L539.372 374.328C538.233 373.859 537.429 373.282 536.96 372.597C536.497 371.913 536.341 371.119 536.494 370.215C536.619 369.465 536.939 368.845 537.452 368.353C537.965 367.861 538.617 367.52 539.408 367.33C540.201 367.135 541.073 367.117 542.027 367.277C543.399 367.507 544.429 367.986 545.117 368.714C545.806 369.436 546.194 370.314 546.281 371.349Z" fill="black"/>
</g>
<defs>
<filter id="filter0_d_144_3663" x="122.693" y="169.051" width="468.504" height="156.959" filterUnits="userSpaceOnUse" color-interpolation-filters="sRGB">
<feFlood flood-opacity="0" result="BackgroundImageFix"/>
<feColorMatrix in="SourceAlpha" type="matrix" values="0 0 0 0 0 0 0 0 0 0 0 0 0 0 0 0 0 0 127 0" result="hardAlpha"/>
<feOffset dx="4.74025" dy="3.16017"/>
<feGaussianBlur stdDeviation="1.58008"/>
<feComposite in2="hardAlpha" operator="out"/>
<feColorMatrix type="matrix" values="0 0 0 0 0.6 0 0 0 0 0.6 0 0 0 0 1 0 0 0 1 0"/>
<feBlend mode="normal" in2="BackgroundImageFix" result="effect1_dropShadow_144_3663"/>
<feBlend mode="normal" in="SourceGraphic" in2="effect1_dropShadow_144_3663" result="shape"/>
</filter>
<filter id="filter1_d_144_3663" x="236.074" y="167.866" width="108.773" height="157.189" filterUnits="userSpaceOnUse" color-interpolation-filters="sRGB">
<feFlood flood-opacity="0" result="BackgroundImageFix"/>
<feColorMatrix in="SourceAlpha" type="matrix" values="0 0 0 0 0 0 0 0 0 0 0 0 0 0 0 0 0 0 127 0" result="hardAlpha"/>
<feOffset dx="4.74025" dy="3.16017"/>
<feGaussianBlur stdDeviation="1.58008"/>
<feComposite in2="hardAlpha" operator="out"/>
<feColorMatrix type="matrix" values="0 0 0 0 0.6 0 0 0 0 0.6 0 0 0 0 1 0 0 0 1 0"/>
<feBlend mode="normal" in2="BackgroundImageFix" result="effect1_dropShadow_144_3663"/>
<feBlend mode="normal" in="SourceGraphic" in2="effect1_dropShadow_144_3663" result="shape"/>
</filter>
<clipPath id="clip0_144_3663">
<rect width="289.911" height="29.9364" fill="white" transform="translate(257.92 351.627)"/>
</clipPath>
</defs>
</svg>
